<?xml version="1.0" encoding="UTF-8"?>
<svg width="16px" height="22px" viewBox="0 0 16 22" version="1.1" xmlns="http://www.w3.org/2000/svg" xmlns:xlink="http://www.w3.org/1999/xlink">
    <!-- Generator: Sketch 47.1 (45422) - http://www.bohemiancoding.com/sketch -->
    <title>icon - copy</title>
    <desc>Created with Sketch.</desc>
    <defs></defs>
    <g id="current" stroke="none" stroke-width="1" fill="none" fill-rule="evenodd">
        <g id="city-lights---ui-theme---error-messages" transform="translate(-1178.000000, -366.000000)" fill="#333F4A">
            <g id="ui-theme" transform="translate(119.000000, 109.000000)">
                <g id="error-v1" transform="translate(790.000000, 73.000000)">
                    <g id="content" transform="translate(16.000000, 12.000000)">
                        <g id="icon---copy" transform="translate(253.000000, 172.000000)">
                            <path d="M4,3 L2,3 L2,14 L11,14 L11,3 L9,3 L9,4 L4,4 L4,3 Z M1,1 L12,1 C12.5522847,1 13,1.44771525 13,2 L13,15 C13,15.5522847 12.5522847,16 12,16 L1,16 C0.44771525,16 0,15.5522847 0,15 L0,2 C0,1.44771525 0.44771525,1 1,1 Z M6,0 L7,0 L7,-2.22044605e-16 C7.55228475,-3.23497668e-16 8,0.44771525 8,1 L8,1 L5,1 L5,1 C5,0.44771525 5.44771525,1.01453063e-16 6,0 Z M6.5,2 C6.22385763,2 6,2.22385763 6,2.5 C6,2.77614237 6.22385763,3 6.5,3 C6.77614237,3 7,2.77614237 7,2.5 C7,2.22385763 6.77614237,2 6.5,2 Z" id="Combined-Shape"></path>
                            <path d="M5,8 L7,8 L7,10 L5,10 L5,8 Z M8,8 L10,8 L10,10 L8,10 L8,8 Z M11,8 L13,8 L13,10 L11,10 L11,8 Z M14,8 L16,8 L16,10 L14,10 L14,8 Z M14,11 L16,11 L16,13 L14,13 L14,11 Z M14,14 L16,14 L16,16 L14,16 L14,14 Z M14,17 L16,17 L16,19 L14,19 L14,17 Z M14,20 L16,20 L16,22 L14,22 L14,20 Z M8,20 L10,20 L10,22 L8,22 L8,20 Z M11,20 L13,20 L13,22 L11,22 L11,20 Z M5,20 L7,20 L7,22 L5,22 L5,20 Z M5,14 L7,14 L7,16 L5,16 L5,14 Z M5,17 L7,17 L7,19 L5,19 L5,17 Z M5,11 L7,11 L7,13 L5,13 L5,11 Z" id="Combined-Shape" opacity="0.400000006"></path>
                        </g>
                    </g>
                </g>
            </g>
        </g>
    </g>
</svg>