<svg xmlns="http://www.w3.org/2000/svg" width="15" height="16" viewBox="0 0 15 16">
  <g fill="#596673" fill-rule="evenodd">
    <rect width="13" height="5" rx="1"/>
    <path fill-rule="nonzero" d="M12.6610174,3 L13.5129773,3 C13.7891197,3 14.0129773,3.22385763 14.0129773,3.5 L14.0129773,6.5 C14.0129773,6.77614237 13.7891197,7 13.5129773,7 L7.5,7 C6.67157288,7 6,7.67157288 6,8.5 L6,9.03275545 L7,9.03275545 L7,8.5 C7,8.22385763 7.22385763,8 7.5,8 L13.6610174,8 C14.4894445,8 15,7.32842712 15,6.5 L15,3.5 C15,2.67157288 14.4894445,2 13.6610174,2 L12.6610174,2 L12.6610174,3 Z"/>
    <rect width="3" height="6" x="5" y="10" rx=".5"/>
  </g>
</svg>
