<svg xmlns="http://www.w3.org/2000/svg" width="15" height="9" viewBox="0 0 15 9">
  <g fill="none" fill-rule="evenodd">
    <path fill="#A0B3C6" d="M4,8 L4,6.5 L4,6.5 C4,6.22385763 3.77614237,6 3.5,6 L3.5,6 L3.5,6 C3.22385763,6 3,6.22385763 3,6.5 L3,8.5 L3,8.5 C3,8.77614237 3.22385763,9 3.5,9 L11.5,9 L11.5,9 C11.7761424,9 12,8.77614237 12,8.5 L12,6.5 L12,6.5 C12,6.22385763 11.7761424,6 11.5,6 L11.5,6 L11.5,6 C11.2238576,6 11,6.22385763 11,6.5 L11,8 L4,8 Z"/>
    <rect width="2" height="7" x="5" fill="#A0B3C6" rx=".75"/>
    <rect width="2" height="7" x="8" fill="#A0B3C6" rx=".75"/>
    <rect width="2" height="7" fill="#718CA1" rx=".75"/>
    <rect width="2" height="7" x="13" fill="#718CA1" rx=".75"/>
  </g>
</svg>
