<svg xmlns="http://www.w3.org/2000/svg" width="9" height="14" viewBox="0 0 9 14">
  <path fill="#99A1B8" d="M239.456282,11.774635 L236.979384,13.8853682 C236.564617,14.2388201 235.932755,14.1994594 235.568083,13.7974536 C235.20341,13.3954479 235.24402,12.7830285 235.658788,12.4295766 L238.780975,9.76894919 C239.44087,9.44534991 239.44087,9.44534991 240.104993,9.76071933 L243.421497,12.5146485 C243.840908,12.8629153 243.889619,13.4747795 243.530296,13.8812855 C243.170973,14.2877914 242.539685,14.3350036 242.120274,13.9867369 L239.456282,11.774635 Z M239.456282,19.9705172 L242.120274,17.7584153 C242.539685,17.4101486 243.170973,17.4573607 243.530296,17.8638667 C243.889619,18.2703727 243.840908,18.8822369 243.421497,19.2305037 L240.104993,21.9844329 C239.44087,22.2998023 239.44087,22.2998023 238.780975,21.976203 L235.658788,19.3155756 C235.24402,18.9621237 235.20341,18.3497043 235.568083,17.9476985 C235.932755,17.5456928 236.564617,17.5063321 236.979384,17.859784 L239.456282,19.9705172 Z" transform="translate(-235 -9)"/>
</svg>
