<svg xmlns="http://www.w3.org/2000/svg" width="9" height="14" viewBox="0 0 9 14">
  <path fill="#EDF2F7" d="M239.456282,27.774635 L236.979384,29.8853682 C236.564617,30.2388201 235.932755,30.1994594 235.568083,29.7974536 C235.20341,29.3954479 235.24402,28.7830285 235.658788,28.4295766 L238.780975,25.7689492 C239.44087,25.4453499 239.44087,25.4453499 240.104993,25.7607193 L243.421497,28.5146485 C243.840908,28.8629153 243.889619,29.4747795 243.530296,29.8812855 C243.170973,30.2877914 242.539685,30.3350036 242.120274,29.9867369 L239.456282,27.774635 Z M239.456282,35.9705172 L242.120274,33.7584153 C242.539685,33.4101486 243.170973,33.4573607 243.530296,33.8638667 C243.889619,34.2703727 243.840908,34.8822369 243.421497,35.2305037 L240.104993,37.9844329 C239.44087,38.2998023 239.44087,38.2998023 238.780975,37.976203 L235.658788,35.3155756 C235.24402,34.9621237 235.20341,34.3497043 235.568083,33.9476985 C235.932755,33.5456928 236.564617,33.5063321 236.979384,33.859784 L239.456282,35.9705172 Z" transform="translate(-235 -25)"/>
</svg>
