<svg xmlns="http://www.w3.org/2000/svg" width="15" height="14" viewBox="0 0 15 14">
  <path fill="#596673" fill-rule="evenodd" d="M1,4 L14,4 L14,13.5 C14,13.7761424 13.7761424,14 13.5,14 L1.5,14 C1.22385763,14 1,13.7761424 1,13.5 L1,4 Z M0.5,0 L14.5,0 C14.7761424,-5.07265313e-17 15,0.223857625 15,0.5 L15,2.5 C15,2.77614237 14.7761424,3 14.5,3 L0.5,3 C0.223857625,3 3.38176876e-17,2.77614237 0,2.5 L0,0.5 L0,0.5 C-3.38176876e-17,0.223857625 0.223857625,5.07265313e-17 0.5,0 L0.5,0 Z M6,5 L6,7 L9,7 L9,5 L6,5 Z"/>
</svg>
