<svg xmlns="http://www.w3.org/2000/svg" width="17" height="12" viewBox="0 0 17 12">
  <path fill="#596673" d="M0.5,0 L16.5,0 C16.7761424,-5.07265313e-17 17,0.223857625 17,0.5 L17,11.5 C17,11.7761424 16.7761424,12 16.5,12 L0.5,12 C0.223857625,12 3.38176876e-17,11.7761424 0,11.5 L0,0.5 L0,0.5 C-3.38176876e-17,0.223857625 0.223857625,5.07265313e-17 0.5,0 L0.5,0 Z M1.25,10.75 L15.75,10.75 L15.75,1.25 L1.25,1.25 L1.25,10.75 Z M2.8999939,2 L5.04999399,2 L5.04999399,4.1500001 L2.8999939,4.1500001 L2.8999939,2 Z M6,2 L8.1500001,2 L8.1500001,4.1500001 L6,4.1500001 L6,2 Z M9,2 L11.1500001,2 L11.1500001,4.1500001 L9,4.1500001 L9,2 Z M12,2 L14.1500001,2 L14.1500001,4.1500001 L12,4.1500001 L12,2 Z M2.8999939,5 L5.04999399,5 L5.04999399,7.1500001 L2.8999939,7.1500001 L2.8999939,5 Z M6,5 L8.1500001,5 L8.1500001,7.1500001 L6,7.1500001 L6,5 Z M9,5 L11.1500001,5 L11.1500001,7.1500001 L9,7.1500001 L9,5 Z M12,5 L14.1500001,5 L14.1500001,7.1500001 L12,7.1500001 L12,5 Z M2.79998779,8 L10.9499879,8 L10.9499879,10.1500001 L2.79998779,10.1500001 L2.79998779,8 Z M12,8 L14.1500001,8 L14.1500001,10.1500001 L12,10.1500001 L12,8 Z"/>
</svg>
