<svg xmlns="http://www.w3.org/2000/svg" width="16" height="16" viewBox="0 0 16 16">
  <path fill="#C7CDDD" fill-rule="evenodd" d="M7,8.01769332 L7,4.5 C7,4.22385763 7.22385763,4 7.5,4 L8.5,4 C8.77614237,4 9,4.22385763 9,4.5 L9,8.01769332 L10.7311487,8.01769332 L10.7311487,8.01769332 C10.8692199,8.01769332 10.9811487,8.12962213 10.9811487,8.26769332 C10.9811487,8.32203745 10.9634409,8.37490168 10.9307067,8.41828089 L8.33537175,11.8576068 C8.25220453,11.9678196 8.09543903,11.9897444 7.98522621,11.9065772 C7.96979343,11.8949315 7.95576365,11.881535 7.94341817,11.8666561 L5.08969829,8.42733018 C5.00153328,8.32107301 5.01619988,8.16346271 5.12245704,8.0752977 C5.16732468,8.03806958 5.22379263,8.01769332 5.2820939,8.01769332 L7,8.01769332 Z M8,16 C3.581722,16 0,12.418278 0,8 C0,3.581722 3.581722,0 8,0 C12.418278,0 16,3.581722 16,8 C16,12.418278 12.418278,16 8,16 Z M8,14 C11.3137085,14 14,11.3137085 14,8 C14,4.6862915 11.3137085,2 8,2 C4.6862915,2 2,4.6862915 2,8 C2,11.3137085 4.6862915,14 8,14 Z"/>
</svg>
