<svg xmlns="http://www.w3.org/2000/svg" width="17" height="13" viewBox="0 0 17 13">
  <path fill="#596673" fill-rule="evenodd" d="M1,8.8817842e-16 L16,8.8817842e-16 L16,8.8817842e-16 C16.5522847,7.86725357e-16 17,0.44771525 17,1 L17,12 L17,12 C17,12.5522847 16.5522847,13 16,13 L1,13 L1,13 C0.44771525,13 6.76353751e-17,12.5522847 0,12 L0,1 L0,1 C-6.76353751e-17,0.44771525 0.44771525,9.89631482e-16 1,8.8817842e-16 Z M6.09215651,5.21798817 L6.09215651,4.16104019 L2.32373047,6.19769763 L2.32373047,7.01479972 L6.09215651,9.05145716 L6.09215651,7.99450919 L3.34409178,6.64080275 L3.34409178,6.57169461 L6.09215651,5.21798817 Z M7.94588065,10.2750777 L10.0801025,2.85205078 L9.15324045,2.85205078 L7.01901858,10.2750777 L7.94588065,10.2750777 Z M11.0069646,5.21798817 L13.7550293,6.57169461 L13.7550293,6.64080275 L11.0069646,7.99450919 L11.0069646,9.05145716 L14.7753906,7.01479972 L14.7753906,6.19769763 L11.0069646,4.16104019 L11.0069646,5.21798817 Z"/>
</svg>
