<svg xmlns="http://www.w3.org/2000/svg" width="14" height="10" viewBox="0 0 14 10">
  <g fill="none" fill-rule="evenodd">
    <path fill="#5EC4FF" d="M0,9.03551515 C0.196425225,8.277875 0.404539305,7.50855441 0.624348485,6.7275303 C0.844157665,5.9465062 1.07097863,5.17017053 1.30481818,4.3985 C1.53865773,3.62682947 1.77950886,2.86920069 2.02737879,2.12559091 C2.27524871,1.38198113 2.52077656,0.673457913 2.7639697,0 L5.093,0 C5.33619314,0.673457913 5.58172098,1.38198113 5.82959091,2.12559091 C6.07746084,2.86920069 6.31831196,3.62682947 6.55215152,4.3985 C6.78599107,5.17017053 7.01281203,5.9465062 7.23262121,6.7275303 C7.45243039,7.50855441 7.66054447,8.277875 7.8569697,9.03551515 L6.04706061,9.03551515 L5.556,7.09933333 L2.27290909,7.09933333 L1.78184848,9.03551515 L0,9.03551515 Z M5.13509091,5.58406061 C4.94801927,4.88254195 4.75159699,4.19740233 4.54581818,3.52862121 C4.34003938,2.85984009 4.13894038,2.22146769 3.94251515,1.61348485 L3.88639394,1.61348485 C3.68996871,2.22146769 3.48886972,2.85984009 3.28309091,3.52862121 C3.0773121,4.19740233 2.8762131,4.88254195 2.67978788,5.58406061 L5.13509091,5.58406061 Z"/>
    <path fill="#329BD7" d="M8.53042424,7.12739394 C8.53042424,6.46328961 8.76426029,5.95352703 9.23193939,5.59809091 C9.6996185,5.24265479 10.377743,5.06493939 11.2663333,5.06493939 C11.4440514,5.06493939 11.6077366,5.07195448 11.7573939,5.08598485 C11.9070513,5.10001522 12.0660598,5.11638374 12.2344242,5.13509091 L12.2344242,4.91060606 C12.2344242,4.54581636 12.1502433,4.28158163 11.9818788,4.11789394 C11.8135143,3.95420625 11.5095275,3.87236364 11.0699091,3.87236364 C10.8080088,3.87236364 10.5086987,3.89574724 10.1719697,3.94251515 C9.83524074,3.98928306 9.54060732,4.04072699 9.28806061,4.09684848 L9.02148485,2.69381818 C9.32079948,2.62834311 9.65986174,2.56520737 10.0386818,2.50440909 C10.4175019,2.44361081 10.8080081,2.41321212 11.2102121,2.41321212 C12.0800953,2.41321212 12.7441896,2.60028096 13.2025152,2.97442424 C13.6608407,3.34856753 13.89,3.92848092 13.89,4.71418182 L13.89,9.03551515 L12.7114545,9.03551515 L12.5430909,8.54445455 C12.3560193,8.69411186 12.1128298,8.83675185 11.8135152,8.97237879 C11.5142005,9.10800573 11.1587697,9.17581818 10.7472121,9.17581818 C10.4478975,9.17581818 10.1626175,9.13138933 9.89136364,9.0425303 C9.62010975,8.95367127 9.38393535,8.82272309 9.18283333,8.64968182 C8.98173132,8.47664055 8.82272281,8.26384975 8.70580303,8.01130303 C8.58888325,7.75875631 8.53042424,7.4641229 8.53042424,7.12739394 Z M10.2140606,7.05724242 C10.2140606,7.30978914 10.2935649,7.50387306 10.4525758,7.6395 C10.6115867,7.77512694 10.8267158,7.84293939 11.0979697,7.84293939 C11.3224557,7.84293939 11.5352465,7.80318727 11.7363485,7.72368182 C11.9374505,7.64417637 12.1034741,7.55765703 12.2344242,7.46412121 L12.2344242,6.29960606 C12.0847669,6.2808989 11.9234201,6.26686873 11.7503788,6.25751515 C11.5773375,6.24816157 11.4346975,6.24348485 11.3224545,6.24348485 C10.9670184,6.24348485 10.6934303,6.3112973 10.5016818,6.44692424 C10.3099334,6.58255118 10.2140606,6.78598854 10.2140606,7.05724242 Z"/>
  </g>
</svg>
