<svg xmlns="http://www.w3.org/2000/svg" width="13" height="17" viewBox="0 0 13 17">
  <g fill="none" fill-rule="evenodd">
    <path fill="#596673" fill-rule="nonzero" d="M0.519717023,11 L0.498163349,11 C0.177228147,10.2304079 0,9.38590088 0,8.5 C0,4.91014913 2.91014913,2 6.5,2 C8.34335873,2 10.0074979,2.76732995 11.1904278,4 L9,4 L9,4.46035771 C8.27385089,4.01001333 7.41729013,3.75 6.5,3.75 C3.87664744,3.75 1.75,5.87664744 1.75,8.5 C1.75,8.92354165 1.80543377,9.33413606 1.90944185,9.72492374 C2.22512041,9.89306095 2.44001237,10.2254942 2.44001237,10.6081182 C2.44001237,10.7083036 2.42527961,10.8050479 2.39786242,10.8963029 C2.41826519,10.9311543 2.43909939,10.9657224 2.46035771,11 L2.36030772,11 C2.207877,11.3575112 1.8532109,11.6081182 1.44001237,11.6081182 C1.02681385,11.6081182 0.672147741,11.3575112 0.519717023,11 Z M11.1380176,7 C11.3184907,6.73921276 11.6197425,6.56837991 11.9608944,6.56837991 C12.3020463,6.56837991 12.603298,6.73921276 12.7837712,7 L12.8260682,7 C12.8350062,7.03783809 12.8436135,7.07580395 12.8518869,7.11389436 C12.9215825,7.25025566 12.9608944,7.40472689 12.9608944,7.56837991 C12.9608944,7.61441581 12.9577836,7.65972515 12.9517608,7.70410918 C12.9836059,7.96494835 13,8.23055965 13,8.5 C13,12.0898509 10.0898509,15 6.5,15 C5.22591597,15 4.03744927,14.6334286 3.0343141,14 L4,14 L4,12.5396423 C4.72614911,12.9899867 5.58270987,13.25 6.5,13.25 C9.12335256,13.25 11.25,11.1233526 11.25,8.5 C11.25,8.42150878 11.2480962,8.34346222 11.2443322,8.26590397 C11.0689324,8.08574708 10.9608944,7.83968031 10.9608944,7.56837991 C10.9608944,7.41743161 10.9943394,7.27429483 11.0542235,7.14597562 C11.039679,7.09698162 11.0243655,7.04831842 11.0082968,7 L11.1380176,7 Z"/>
    <path fill="#5D6A77" d="M7.40659007,1.22005862 L11.0173173,3.50091095 L11.0173173,3.50091095 C11.1340492,3.57464908 11.1689025,3.72905557 11.0951644,3.84578749 C11.0868408,3.85896421 11.0773033,3.87133371 11.0666764,3.88273444 L8.45807194,6.68128422 L8.45807194,6.68128422 C8.36392857,6.78228263 8.2057349,6.78783974 8.10473649,6.69369637 C8.06627955,6.65784961 8.04010211,6.61079149 8.02992605,6.55921267 L7.02780328,1.47981055 L7.02780328,1.47981055 C7.00107817,1.34435051 7.08922524,1.21287347 7.22468528,1.18614836 C7.28742557,1.17377024 7.35252397,1.18590572 7.40659007,1.22005862 Z" transform="rotate(27 9.078 3.971)"/>
    <path fill="#5D6A77" d="M3.0712429,10.3998495 L7.03783012,12.4452558 L7.03783012,12.4452558 C7.16054653,12.5085356 7.2087294,12.6593153 7.14544959,12.7820318 C7.13706713,12.7982876 7.1269261,12.8135744 7.1152086,12.8276178 L4.52094308,15.9368416 L4.52094308,15.9368416 C4.43248676,16.0428563 4.27483679,16.0570903 4.16882201,15.968634 C4.12914168,15.9355256 4.10069678,15.8909338 4.08740142,15.8409946 L2.71507972,10.6863646 L2.71507972,10.6863646 C2.67955822,10.5529409 2.75892361,10.4159838 2.89234728,10.3804623 C2.95231847,10.3644961 3.0160844,10.3714065 3.0712429,10.3998495 Z" transform="rotate(-153 4.94 13.2)"/>
  </g>
</svg>
