<svg xmlns="http://www.w3.org/2000/svg" width="16" height="11" viewBox="0 0 16 11">
  <path fill="#576B7B" fill-rule="evenodd" d="M9,9 L9,5.5 C9,5.22385763 8.77614237,5 8.5,5 L7.5,5 C7.22385763,5 7,5.22385763 7,5.5 L7,9 L5.50019709,9 C5.44607758,9 5.39341943,9.01756194 5.35013405,9.0500473 C5.23970322,9.13292483 5.21736686,9.28963221 5.30024439,9.40006304 L7.8018867,12.7333964 C7.81610624,12.7523433 7.83294658,12.769173 7.85190249,12.7833806 C7.96238556,12.8661885 8.11907883,12.8437533 8.2018867,12.7332702 L10.7002444,9.39993691 C10.7326701,9.35667422 10.7501971,9.30406558 10.7501971,9.25 C10.7501971,9.11192881 10.6382683,9 10.5001971,9 L9,9 Z M12.9046212,7.02313625 C14.6470205,7.22371248 16,8.70385359 16,10.5 L16,10.5 C16,12.4329966 14.4329966,14 12.5,14 L3.5,14 C1.56700338,14 2.36723813e-16,12.4329966 0,10.5 C-2.19964495e-16,8.70385359 1.35297947,7.22371248 3.09537882,7.02313625 C3.5496677,4.72937881 5.57287482,3 8,3 L8,3 L8,3 C10.4271252,3 12.4503323,4.72937881 12.9046212,7.02313625 Z" transform="translate(0 -3)"/>
</svg>
