<svg xmlns="http://www.w3.org/2000/svg" width="15" height="16" viewBox="0 0 15 16">
  <path fill="#C7CDDD" fill-rule="evenodd" d="M13,2 L13,1 C13,0.44771525 12.5522847,-1.01453063e-16 12,0 L1,0 L1,0 C0.44771525,1.01453063e-16 -6.76353751e-17,0.44771525 0,1 L0,1 L0,4 C6.76353751e-17,4.55228475 0.44771525,5 1,5 L12,5 C12.5522847,5 13,4.55228475 13,4 L13,3 L13.5129773,3 C13.7891197,3 14.0129773,3.22385763 14.0129773,3.5 L14.0129773,6.5 C14.0129773,6.77614237 13.7891197,7 13.5129773,7 L7.5,7 C6.67157288,7 6,7.67157288 6,8.5 L6,9.03275545 L7,9.03275545 L7,8.5 C7,8.22385763 7.22385763,8 7.5,8 L13.6610174,8 C14.4894445,8 15,7.32842712 15,6.5 L15,3.5 C15,2.67157288 14.4894445,2 13.6610174,2 L13,2 Z M5.5,10 L7.5,10 C7.77614237,10 8,10.2238576 8,10.5 L8,15.5 C8,15.7761424 7.77614237,16 7.5,16 L5.5,16 C5.22385763,16 5,15.7761424 5,15.5 L5,10.5 C5,10.2238576 5.22385763,10 5.5,10 Z"/>
</svg>
