<svg xmlns="http://www.w3.org/2000/svg" width="19" height="18" viewBox="0 0 19 18">
  <g fill="#C7CDDD">
    <path d="M16.4266528,8.47773727 C16.2596376,8.81950187 15.9156831,9.05400754 15.5184852,9.05400754 C14.9574497,9.05400754 14.5026405,8.58614289 14.5026405,8.0090026 C14.5026405,7.62622444 14.7027007,7.29151416 15.0011253,7.1094868 L14.968249,7.07793147 L16.3732426,5.65787997 C17.1666667,4.84168033 17.1666667,3.51835926 16.3732426,2.70215962 C15.5798186,1.88595999 14.293424,1.88595999 13.5,2.70215962 L9.74398919,6.49842516 C9.0538876,7.20833642 8.96402016,8.30189073 9.47438687,9.11172067 C9.60847337,9.28880786 9.68834302,9.51147428 9.68834302,9.75333074 C9.68834302,10.330471 9.23353386,10.7983357 8.67249834,10.7983357 C8.41060644,10.7983357 8.17186159,10.6963865 7.99172073,10.5289629 L7.97434522,10.544824 C6.72960903,8.90480632 6.84061658,6.52942004 8.30736788,5.02056498 L12.0633787,1.22429945 C13.6502268,-0.408099818 16.2230159,-0.408099818 17.8098639,1.22429945 C19.396712,2.85669872 19.396712,5.50334087 17.8098639,7.13574014 L16.4550909,8.5050328 L16.4266528,8.47773727 Z"/>
    <path d="M13.2926909,7.76881057 C13.8290828,9.19348353 13.5240427,10.8627548 12.3775703,12.0092271 L7.79460307,16.1765811 C6.2325059,17.7386783 3.69984599,17.7386783 2.13774882,16.1765811 C0.575651652,14.6144839 0.575651652,12.081824 2.13774882,10.5197269 L4.34483636,8.51279235 C4.52796524,8.23878009 4.83484719,8.05910402 5.1825237,8.05910402 C5.74355922,8.05910402 6.19836837,8.52696867 6.19836837,9.10410897 C6.19836837,9.51419204 5.96874817,9.86910496 5.63455592,10.04021 L3.55196238,11.9339404 C2.7709138,12.714989 2.7709138,13.981319 3.55196238,14.7623675 C4.33301096,15.5434161 5.59934092,15.5434161 6.38038951,14.7623675 L10.9633568,10.5950135 C11.4963225,10.0620478 11.6656073,9.30311976 11.4712112,8.62661014 L11.4955227,8.60249074 C11.3587315,8.42446339 11.2770772,8.19953863 11.2770772,7.95499505 C11.2770772,7.37785475 11.7318864,6.9099901 12.2929219,6.9099901 C12.543864,6.9099901 12.7735541,7.00359242 12.9507995,7.15870876 L12.9827398,7.12702073 C13.0139732,7.17914922 13.0439149,7.23183576 13.0725649,7.28503418 C13.1832642,7.42121239 13.2608777,7.586831 13.2926909,7.76881057 Z"/>
  </g>
</svg>
