<svg xmlns="http://www.w3.org/2000/svg" width="14" height="14" viewBox="0 0 14 14">
  <path fill="#EDF2F7" d="M24.9874634,32.686 C25.0154073,32.462 25.0363652,32.238 25.0363652,32 C25.0363652,31.762 25.0154073,31.538 24.9874634,31.314 L26.4615038,30.159 C26.5942373,30.054 26.6291671,29.865 26.5453355,29.711 L25.1481408,27.289 C25.0643091,27.135 24.8756878,27.079 24.7219964,27.135 L22.982489,27.835 C22.6192184,27.555 22.2280039,27.324 21.8018595,27.149 L21.5363925,25.294 C21.5154346,25.126 21.3687292,25 21.1940798,25 L18.3996905,25 C18.2250412,25 18.0783357,25.126 18.0573778,25.294 L17.7919108,27.149 C17.3657664,27.324 16.9745519,27.562 16.6112813,27.835 L14.8717739,27.135 C14.7110965,27.072 14.5294612,27.135 14.4456296,27.289 L13.0484349,29.711 C12.9576172,29.865 12.9995331,30.054 13.1322666,30.159 L14.6063069,31.314 C14.578363,31.538 14.5574051,31.769 14.5574051,32 C14.5574051,32.231 14.578363,32.462 14.6063069,32.686 L13.1322666,33.841 C12.9995331,33.946 12.9646032,34.135 13.0484349,34.289 L14.4456296,36.711 C14.5294612,36.865 14.7180825,36.921 14.8717739,36.865 L16.6112813,36.165 C16.9745519,36.445 17.3657664,36.676 17.7919108,36.851 L18.0573778,38.706 C18.0783357,38.874 18.2250412,39 18.3996905,39 L21.1940798,39 C21.3687292,39 21.5154346,38.874 21.5363925,38.706 L21.8018595,36.851 C22.2280039,36.676 22.6192184,36.438 22.982489,36.165 L24.7219964,36.865 C24.8826738,36.928 25.0643091,36.865 25.1481408,36.711 L26.5453355,34.289 C26.6291671,34.135 26.5942373,33.946 26.4615038,33.841 L24.9874634,32.686 Z M20,35 C18.3457143,35 17,33.6542857 17,32 C17,30.3457143 18.3457143,29 20,29 C21.6542857,29 23,30.3457143 23,32 C23,33.6542857 21.6542857,35 20,35 Z" transform="translate(-13 -25)"/>
</svg>
